<svg width="40" height="40" viewBox="0 0 40 40" fill="none" xmlns="http://www.w3.org/2000/svg">
<path d="M33.75 11.25H6.25C5.55964 11.25 5 11.8096 5 12.5V32.5C5 33.1904 5.55964 33.75 6.25 33.75H33.75C34.4404 33.75 35 33.1904 35 32.5V12.5C35 11.8096 34.4404 11.25 33.75 11.25Z" stroke="white" stroke-width="1.5" stroke-linecap="round" stroke-linejoin="round"/>
<path d="M13.75 14.5835V9.5835C13.75 7.92589 14.4085 6.33618 15.5806 5.16408C16.7527 3.99198 18.3424 3.3335 20 3.3335C21.6576 3.3335 23.2473 3.99198 24.4194 5.16408C25.5915 6.33618 26.25 7.92589 26.25 9.5835V14.5835" stroke="white" stroke-width="1.5" stroke-linecap="round" stroke-linejoin="round"/>
</svg>
