<svg width="40" height="40" viewBox="0 0 40 40" fill="none" xmlns="http://www.w3.org/2000/svg">
<path d="M20.8662 32.9745L32.5907 20.5719C35.4716 17.5244 35.8966 12.5109 33.1703 9.30827C32.4875 8.50374 31.6568 7.85483 30.729 7.40113C29.8012 6.94743 28.7958 6.69845 27.774 6.66938C26.7523 6.64031 25.7356 6.83177 24.7861 7.23207C23.8366 7.63237 22.9742 8.23312 22.2514 8.99766L20.0477 11.3288L18.1451 9.31609C15.2642 6.26863 10.5248 5.81903 7.49732 8.70296C6.73678 9.42533 6.12335 10.3041 5.69446 11.2855C5.26556 12.267 5.0302 13.3306 5.00272 14.4114C4.97524 15.4923 5.15623 16.5677 5.53464 17.5721C5.91306 18.5765 6.48096 19.4889 7.2037 20.2534L19.2292 32.9745C19.4463 33.2042 19.7407 33.3332 20.0477 33.3332C20.3547 33.3332 20.6491 33.2042 20.8662 32.9745V32.9745Z" stroke="white" stroke-width="1.5" stroke-linecap="round" stroke-linejoin="round"/>
</svg>
