<svg width="29" height="26" viewBox="0 0 29 26" fill="none" xmlns="http://www.w3.org/2000/svg">
<path d="M2 11L14 24.5L26.5 11.5L27.5 6L24 1.5H18.5L14 5L10 1.5H4.5L1 6L2 11Z" fill="#417060"/>
<path d="M13.0117 4.87044H13.0124L12.4526 4.0812C10.0468 0.688786 5.04138 0.693289 2.64105 4.08897L2.64103 4.08899C1.83668 5.22705 1.44668 6.60949 1.53619 8.00305C1.62569 9.39662 2.1893 10.717 3.13278 11.7413L3.50053 11.4025L3.13278 11.7413L13.7995 23.3206L14.1667 23.7193L14.5345 23.3211L25.1911 11.7846L25.1911 11.7846C26.1452 10.7514 26.7133 9.41689 26.799 8.00923C26.8848 6.60162 26.4831 5.20724 25.6618 4.06443C23.2299 0.679297 18.2136 0.714128 15.8262 4.13093C15.8262 4.13095 15.8262 4.13096 15.8261 4.13098L14.583 5.90965L13.0117 4.87044ZM13.0117 4.87044L13.7513 5.91277L13.0117 4.87044ZM13.7055 6.51647L13.9346 6.07207C14.007 6.10941 14.087 6.12862 14.1679 6.12832C14.2488 6.12802 14.3287 6.10821 14.4008 6.07033C14.4729 6.03247 14.5355 5.97757 14.5829 5.90986L13.7055 6.51647ZM13.7055 6.51647L13.9346 6.07207C13.8623 6.03477 13.7994 5.98037 13.7515 5.91306L13.7055 6.51647ZM0.514692 8.06892C0.412727 6.47773 0.843817 4.89983 1.73605 3.58754L1.8107 3.48193C4.6182 -0.489944 10.4667 -0.494844 13.2819 3.47245C13.2819 3.47246 13.2819 3.47247 13.2819 3.47248L13.7523 4.13547L14.1636 4.71517L14.5702 4.13216L14.9919 3.52762C14.9919 3.52761 14.9919 3.5276 14.9919 3.52758C17.7839 -0.468905 23.6437 -0.507796 26.4875 3.45039L26.4876 3.45046C27.4492 4.78847 27.9205 6.42232 27.82 8.07267C27.7196 9.72296 27.0539 11.2862 25.9375 12.4954C25.9375 12.4954 25.9375 12.4954 25.9374 12.4954L14.5384 24.8357L14.5383 24.8358C14.4902 24.8879 14.4322 24.9292 14.368 24.9574C14.3039 24.9855 14.2349 25 14.1652 25C14.0955 25 14.0265 24.9855 13.9623 24.9574C13.8983 24.9293 13.8404 24.888 13.7923 24.8361C13.7922 24.836 13.7922 24.8359 13.7921 24.8358L2.38525 12.451L2.38524 12.451C1.28047 11.2516 0.619457 9.70382 0.514692 8.06892Z" fill="#417060" stroke="#417060"/>
</svg>
