<svg width="213" height="38" viewBox="0 0 213 38" fill="none" xmlns="http://www.w3.org/2000/svg">
<g clip-path="url(#clip0_73_304)">
<path d="M51.9199 28.0001H49.6799V12.0401C49.6799 10.9201 50.0066 9.98678 50.6599 9.24012C51.3506 8.49345 52.2373 8.12012 53.3199 8.12012C54.4026 8.12012 55.2893 8.49345 55.9799 9.24012C56.6333 9.98678 56.9599 10.9201 56.9599 12.0401V24.3601C56.9599 25.4801 57.4266 26.0401 58.3599 26.0401C59.2933 26.0401 59.7599 25.4801 59.7599 24.3601V12.0401C59.7599 10.9201 60.0866 9.98678 60.7399 9.24012C61.4306 8.49345 62.3173 8.12012 63.3999 8.12012C64.4826 8.12012 65.3693 8.49345 66.0599 9.24012C66.7133 9.98678 67.0399 10.9201 67.0399 12.0401V28.0001H64.7999V12.0401C64.7999 10.9201 64.3333 10.3601 63.3999 10.3601C62.4666 10.3601 61.9999 10.9201 61.9999 12.0401V24.3601C61.9999 25.4801 61.6733 26.4135 61.0199 27.1601C60.3293 27.9068 59.4426 28.2801 58.3599 28.2801C57.2773 28.2801 56.3906 27.9068 55.6999 27.1601C55.0466 26.4135 54.7199 25.4801 54.7199 24.3601V12.0401C54.7199 10.9201 54.2533 10.3601 53.3199 10.3601C52.3866 10.3601 51.9199 10.9201 51.9199 12.0401V28.0001Z" fill="white"/>
<path d="M82.1664 8.40015H84.4064V23.2401C84.4064 24.6215 83.9117 25.8068 82.9224 26.7961C81.9331 27.7855 80.7477 28.2801 79.3664 28.2801C77.9851 28.2801 76.7997 27.7855 75.8104 26.7961C74.8211 25.8068 74.3264 24.6215 74.3264 23.2401H76.5664C76.5664 24.0055 76.8371 24.6681 77.3784 25.2281C77.9384 25.7695 78.6011 26.0401 79.3664 26.0401C80.1317 26.0401 80.7944 25.7695 81.3544 25.2281C81.8957 24.6681 82.1664 24.0055 82.1664 23.2401V19.6001H79.3664C77.9664 19.6001 76.7811 19.1335 75.8104 18.2001C74.8211 17.2481 74.3264 16.0815 74.3264 14.7001V8.40015H76.5664V14.7001C76.5664 15.4655 76.8371 16.1281 77.3784 16.6881C77.9384 17.2295 78.6011 17.5001 79.3664 17.5001H82.1664V8.40015Z" fill="white"/>
<path d="M91.9587 8.40015H96.9987C98.3987 8.40015 99.5841 8.86681 100.555 9.80015C101.544 10.7521 102.039 11.9188 102.039 13.3001V14.2801C102.039 15.8668 101.404 17.1735 100.135 18.2001C101.404 19.2268 102.039 20.5335 102.039 22.1201V23.1001C102.039 24.4815 101.544 25.6481 100.555 26.6001C99.5841 27.5335 98.3987 28.0001 96.9987 28.0001H91.9587V8.40015ZM94.1987 17.0801H96.9987C97.7827 17.0801 98.4454 16.8001 98.9867 16.2401C99.5281 15.6988 99.7987 15.0455 99.7987 14.2801V13.3001C99.7987 12.5348 99.5281 11.8721 98.9867 11.3121C98.4267 10.7708 97.7641 10.5001 96.9987 10.5001H94.1987V17.0801ZM94.1987 19.3201V25.9001H96.9987C97.7641 25.9001 98.4267 25.6295 98.9867 25.0881C99.5281 24.5281 99.7987 23.8655 99.7987 23.1001V22.1201C99.7987 21.3548 99.5281 20.6921 98.9867 20.1321C98.4267 19.5908 97.7641 19.3201 96.9987 19.3201H94.1987Z" fill="white"/>
<path d="M111.852 28.0001H109.612V12.0401C109.612 10.9201 109.939 9.98678 110.592 9.24012C111.283 8.49345 112.169 8.12012 113.252 8.12012C114.335 8.12012 115.221 8.49345 115.912 9.24012C116.565 9.98678 116.892 10.9201 116.892 12.0401V24.3601C116.892 25.4801 117.359 26.0401 118.292 26.0401C119.225 26.0401 119.692 25.4801 119.692 24.3601V12.0401C119.692 10.9201 120.019 9.98678 120.672 9.24012C121.363 8.49345 122.249 8.12012 123.332 8.12012C124.415 8.12012 125.301 8.49345 125.992 9.24012C126.645 9.98678 126.972 10.9201 126.972 12.0401V28.0001H124.732V12.0401C124.732 10.9201 124.265 10.3601 123.332 10.3601C122.399 10.3601 121.932 10.9201 121.932 12.0401V24.3601C121.932 25.4801 121.605 26.4135 120.952 27.1601C120.261 27.9068 119.375 28.2801 118.292 28.2801C117.209 28.2801 116.323 27.9068 115.632 27.1601C114.979 26.4135 114.652 25.4801 114.652 24.3601V12.0401C114.652 10.9201 114.185 10.3601 113.252 10.3601C112.319 10.3601 111.852 10.9201 111.852 12.0401V28.0001Z" fill="white"/>
<path d="M142.379 19.0401H136.779V28.0001H134.539V13.1601C134.539 11.7788 135.033 10.5935 136.023 9.60412C137.012 8.61478 138.197 8.12012 139.579 8.12012C140.96 8.12012 142.145 8.61478 143.135 9.60412C144.124 10.5935 144.619 11.7788 144.619 13.1601V28.0001H142.379V19.0401ZM136.779 16.9401H142.379V13.1601C142.379 12.3948 142.108 11.7321 141.567 11.1721C141.007 10.6308 140.344 10.3601 139.579 10.3601C138.813 10.3601 138.151 10.6308 137.591 11.1721C137.049 11.7321 136.779 12.3948 136.779 13.1601V16.9401Z" fill="white"/>
<path d="M152.192 8.40015H157.232C158.632 8.40015 159.817 8.86681 160.788 9.80015C161.777 10.7521 162.272 11.9188 162.272 13.3001V14.2801C162.272 15.7175 161.777 16.9215 160.788 17.8921C159.817 18.8441 158.632 19.3201 157.232 19.3201H154.432V28.0001H152.192V8.40015ZM154.432 17.0801H157.232C158.016 17.0801 158.678 16.8001 159.22 16.2401C159.761 15.6988 160.032 15.0455 160.032 14.2801V13.3001C160.032 12.5348 159.761 11.8721 159.22 11.3121C158.66 10.7708 157.997 10.5001 157.232 10.5001H154.432V17.0801Z" fill="white"/>
<path d="M173.036 19.0401H170.964V28.0001H168.724V8.40015H170.964V16.9401H173.764C174.529 16.9401 175.192 16.6695 175.752 16.1281C176.293 15.5681 176.564 14.9055 176.564 14.1401V8.40015H178.804V14.1401C178.804 15.2041 178.486 16.1655 177.852 17.0241C177.236 17.8641 176.424 18.4521 175.416 18.7881L179.924 28.0001H177.404L173.036 19.0401Z" fill="white"/>
<path d="M188.617 16.9401H194.217V19.0401H188.617V23.2401C188.617 24.0055 188.887 24.6681 189.429 25.2281C189.989 25.7695 190.651 26.0401 191.417 26.0401C192.182 26.0401 192.845 25.7695 193.405 25.2281C193.946 24.6681 194.217 24.0055 194.217 23.2401H196.457C196.457 24.6215 195.962 25.8068 194.973 26.7961C193.983 27.7855 192.798 28.2801 191.417 28.2801C190.035 28.2801 188.85 27.7855 187.861 26.7961C186.871 25.8068 186.377 24.6215 186.377 23.2401V13.1601C186.377 11.7788 186.871 10.5935 187.861 9.60412C188.85 8.61478 190.035 8.12012 191.417 8.12012C192.798 8.12012 193.983 8.61478 194.973 9.60412C195.962 10.5935 196.457 11.7788 196.457 13.1601H194.217C194.217 12.3948 193.946 11.7321 193.405 11.1721C192.845 10.6308 192.182 10.3601 191.417 10.3601C190.651 10.3601 189.989 10.6308 189.429 11.1721C188.887 11.7321 188.617 12.3948 188.617 13.1601V16.9401Z" fill="white"/>
<path d="M202.609 8.40015H212.689V10.5001H208.769V28.0001H206.529V10.5001H202.609V8.40015Z" fill="white"/>
<path d="M51.9199 28.0001H49.6799V12.0401C49.6799 10.9201 50.0066 9.98678 50.6599 9.24012C51.3506 8.49345 52.2373 8.12012 53.3199 8.12012C54.4026 8.12012 55.2893 8.49345 55.9799 9.24012C56.6333 9.98678 56.9599 10.9201 56.9599 12.0401V24.3601C56.9599 25.4801 57.4266 26.0401 58.3599 26.0401C59.2933 26.0401 59.7599 25.4801 59.7599 24.3601V12.0401C59.7599 10.9201 60.0866 9.98678 60.7399 9.24012C61.4306 8.49345 62.3173 8.12012 63.3999 8.12012C64.4826 8.12012 65.3693 8.49345 66.0599 9.24012C66.7133 9.98678 67.0399 10.9201 67.0399 12.0401V28.0001H64.7999V12.0401C64.7999 10.9201 64.3333 10.3601 63.3999 10.3601C62.4666 10.3601 61.9999 10.9201 61.9999 12.0401V24.3601C61.9999 25.4801 61.6733 26.4135 61.0199 27.1601C60.3293 27.9068 59.4426 28.2801 58.3599 28.2801C57.2773 28.2801 56.3906 27.9068 55.6999 27.1601C55.0466 26.4135 54.7199 25.4801 54.7199 24.3601V12.0401C54.7199 10.9201 54.2533 10.3601 53.3199 10.3601C52.3866 10.3601 51.9199 10.9201 51.9199 12.0401V28.0001Z" stroke="white"/>
<path d="M82.1664 8.40015H84.4064V23.2401C84.4064 24.6215 83.9117 25.8068 82.9224 26.7961C81.9331 27.7855 80.7477 28.2801 79.3664 28.2801C77.9851 28.2801 76.7997 27.7855 75.8104 26.7961C74.8211 25.8068 74.3264 24.6215 74.3264 23.2401H76.5664C76.5664 24.0055 76.8371 24.6681 77.3784 25.2281C77.9384 25.7695 78.6011 26.0401 79.3664 26.0401C80.1317 26.0401 80.7944 25.7695 81.3544 25.2281C81.8957 24.6681 82.1664 24.0055 82.1664 23.2401V19.6001H79.3664C77.9664 19.6001 76.7811 19.1335 75.8104 18.2001C74.8211 17.2481 74.3264 16.0815 74.3264 14.7001V8.40015H76.5664V14.7001C76.5664 15.4655 76.8371 16.1281 77.3784 16.6881C77.9384 17.2295 78.6011 17.5001 79.3664 17.5001H82.1664V8.40015Z" stroke="white"/>
<path d="M91.9587 8.40015H96.9987C98.3987 8.40015 99.5841 8.86681 100.555 9.80015C101.544 10.7521 102.039 11.9188 102.039 13.3001V14.2801C102.039 15.8668 101.404 17.1735 100.135 18.2001C101.404 19.2268 102.039 20.5335 102.039 22.1201V23.1001C102.039 24.4815 101.544 25.6481 100.555 26.6001C99.5841 27.5335 98.3987 28.0001 96.9987 28.0001H91.9587V8.40015ZM94.1987 17.0801H96.9987C97.7827 17.0801 98.4454 16.8001 98.9867 16.2401C99.5281 15.6988 99.7987 15.0455 99.7987 14.2801V13.3001C99.7987 12.5348 99.5281 11.8721 98.9867 11.3121C98.4267 10.7708 97.7641 10.5001 96.9987 10.5001H94.1987V17.0801ZM94.1987 19.3201V25.9001H96.9987C97.7641 25.9001 98.4267 25.6295 98.9867 25.0881C99.5281 24.5281 99.7987 23.8655 99.7987 23.1001V22.1201C99.7987 21.3548 99.5281 20.6921 98.9867 20.1321C98.4267 19.5908 97.7641 19.3201 96.9987 19.3201H94.1987Z" stroke="white"/>
<path d="M111.852 28.0001H109.612V12.0401C109.612 10.9201 109.939 9.98678 110.592 9.24012C111.283 8.49345 112.169 8.12012 113.252 8.12012C114.335 8.12012 115.221 8.49345 115.912 9.24012C116.565 9.98678 116.892 10.9201 116.892 12.0401V24.3601C116.892 25.4801 117.359 26.0401 118.292 26.0401C119.225 26.0401 119.692 25.4801 119.692 24.3601V12.0401C119.692 10.9201 120.019 9.98678 120.672 9.24012C121.363 8.49345 122.249 8.12012 123.332 8.12012C124.415 8.12012 125.301 8.49345 125.992 9.24012C126.645 9.98678 126.972 10.9201 126.972 12.0401V28.0001H124.732V12.0401C124.732 10.9201 124.265 10.3601 123.332 10.3601C122.399 10.3601 121.932 10.9201 121.932 12.0401V24.3601C121.932 25.4801 121.605 26.4135 120.952 27.1601C120.261 27.9068 119.375 28.2801 118.292 28.2801C117.209 28.2801 116.323 27.9068 115.632 27.1601C114.979 26.4135 114.652 25.4801 114.652 24.3601V12.0401C114.652 10.9201 114.185 10.3601 113.252 10.3601C112.319 10.3601 111.852 10.9201 111.852 12.0401V28.0001Z" stroke="white"/>
<path d="M142.379 19.0401H136.779V28.0001H134.539V13.1601C134.539 11.7788 135.033 10.5935 136.023 9.60412C137.012 8.61478 138.197 8.12012 139.579 8.12012C140.96 8.12012 142.145 8.61478 143.135 9.60412C144.124 10.5935 144.619 11.7788 144.619 13.1601V28.0001H142.379V19.0401ZM136.779 16.9401H142.379V13.1601C142.379 12.3948 142.108 11.7321 141.567 11.1721C141.007 10.6308 140.344 10.3601 139.579 10.3601C138.813 10.3601 138.151 10.6308 137.591 11.1721C137.049 11.7321 136.779 12.3948 136.779 13.1601V16.9401Z" stroke="white"/>
<path d="M152.192 8.40015H157.232C158.632 8.40015 159.817 8.86681 160.788 9.80015C161.777 10.7521 162.272 11.9188 162.272 13.3001V14.2801C162.272 15.7175 161.777 16.9215 160.788 17.8921C159.817 18.8441 158.632 19.3201 157.232 19.3201H154.432V28.0001H152.192V8.40015ZM154.432 17.0801H157.232C158.016 17.0801 158.678 16.8001 159.22 16.2401C159.761 15.6988 160.032 15.0455 160.032 14.2801V13.3001C160.032 12.5348 159.761 11.8721 159.22 11.3121C158.66 10.7708 157.997 10.5001 157.232 10.5001H154.432V17.0801Z" stroke="white"/>
<path d="M173.036 19.0401H170.964V28.0001H168.724V8.40015H170.964V16.9401H173.764C174.529 16.9401 175.192 16.6695 175.752 16.1281C176.293 15.5681 176.564 14.9055 176.564 14.1401V8.40015H178.804V14.1401C178.804 15.2041 178.486 16.1655 177.852 17.0241C177.236 17.8641 176.424 18.4521 175.416 18.7881L179.924 28.0001H177.404L173.036 19.0401Z" stroke="white"/>
<path d="M188.617 16.9401H194.217V19.0401H188.617V23.2401C188.617 24.0055 188.887 24.6681 189.429 25.2281C189.989 25.7695 190.651 26.0401 191.417 26.0401C192.182 26.0401 192.845 25.7695 193.405 25.2281C193.946 24.6681 194.217 24.0055 194.217 23.2401H196.457C196.457 24.6215 195.962 25.8068 194.973 26.7961C193.983 27.7855 192.798 28.2801 191.417 28.2801C190.035 28.2801 188.85 27.7855 187.861 26.7961C186.871 25.8068 186.377 24.6215 186.377 23.2401V13.1601C186.377 11.7788 186.871 10.5935 187.861 9.60412C188.85 8.61478 190.035 8.12012 191.417 8.12012C192.798 8.12012 193.983 8.61478 194.973 9.60412C195.962 10.5935 196.457 11.7788 196.457 13.1601H194.217C194.217 12.3948 193.946 11.7321 193.405 11.1721C192.845 10.6308 192.182 10.3601 191.417 10.3601C190.651 10.3601 189.989 10.6308 189.429 11.1721C188.887 11.7321 188.617 12.3948 188.617 13.1601V16.9401Z" stroke="white"/>
<path d="M202.609 8.40015H212.689V10.5001H208.769V28.0001H206.529V10.5001H202.609V8.40015Z" stroke="white"/>
<path d="M1 12.4167L15.1667 2L28.9167 12.4167" stroke="white" stroke-width="2" stroke-linecap="round"/>
<path d="M21.4167 16.5833H2.25L6.41667 28.2499H12.6667V21.5833H17.6667V28.2499H23.5L27.6667 16.5833H36" stroke="white" stroke-width="2" stroke-linecap="round"/>
<path d="M6.41659 28.25C5.72214 28.3889 4.33325 29 4.33325 30.3333C4.33325 32 5.58325 32.4167 5.99992 32.4167C6.33325 32.4167 18.361 32.4167 23.9166 32.4167" stroke="white" stroke-width="2" stroke-linecap="round"/>
<path d="M9.74992 37.4166C10.6704 37.4166 11.4166 36.6704 11.4166 35.7499C11.4166 34.8294 10.6704 34.0833 9.74992 34.0833C8.82945 34.0833 8.08325 34.8294 8.08325 35.7499C8.08325 36.6704 8.82945 37.4166 9.74992 37.4166Z" fill="white"/>
<path d="M18.9167 37.4166C19.8371 37.4166 20.5833 36.6704 20.5833 35.7499C20.5833 34.8294 19.8371 34.0833 18.9167 34.0833C17.9962 34.0833 17.25 34.8294 17.25 35.7499C17.25 36.6704 17.9962 37.4166 18.9167 37.4166Z" fill="white"/>
</g>
<defs>
<clipPath id="clip0_73_304">
<rect width="213" height="38" fill="white"/>
</clipPath>
</defs>
</svg>
