<svg width="40" height="40" viewBox="0 0 40 40" fill="none" xmlns="http://www.w3.org/2000/svg">
<path d="M20.8662 32.9748L32.5907 20.5721C35.4716 17.5247 35.8966 12.5112 33.1703 9.30851C32.4875 8.50399 31.6568 7.85507 30.729 7.40137C29.8012 6.94767 28.7958 6.69869 27.774 6.66962C26.7523 6.64056 25.7356 6.83202 24.7861 7.23232C23.8366 7.63262 22.9742 8.23336 22.2514 8.99791L20.0477 11.329L18.1451 9.31634C15.2642 6.26888 10.5248 5.81927 7.49732 8.7032C6.73678 9.42558 6.12335 10.3043 5.69446 11.2857C5.26556 12.2672 5.0302 13.3308 5.00272 14.4117C4.97524 15.4925 5.15623 16.5679 5.53464 17.5724C5.91306 18.5768 6.48096 19.4891 7.2037 20.2537L19.2292 32.9748C19.4463 33.2044 19.7407 33.3334 20.0477 33.3334C20.3547 33.3334 20.6491 33.2044 20.8662 32.9748V32.9748Z" stroke="white" stroke-width="1.5" stroke-linecap="round" stroke-linejoin="round"/>
</svg>
