<svg width="29" height="26" viewBox="0 0 29 26" fill="none" xmlns="http://www.w3.org/2000/svg">
<path d="M1.73605 3.58755C0.843816 4.89983 0.412727 6.47773 0.514692 8.06892C0.619457 9.70382 1.28047 11.2516 2.38524 12.451L2.38525 12.451L13.7921 24.8358L1.73605 3.58755ZM1.73605 3.58755L1.8107 3.48193C4.61821 -0.489953 10.4667 -0.494844 13.2819 3.47248L13.7523 4.13547L14.1636 4.71517L14.5702 4.13216L14.9919 3.52762M1.73605 3.58755L14.9919 3.52762M14.9919 3.52762C14.9919 3.52756 14.9919 3.5275 14.992 3.52745C17.7841 -0.468906 23.6437 -0.507751 26.4875 3.45039L26.4876 3.45046M14.9919 3.52762L26.4876 3.45046M26.4876 3.45046C27.4492 4.78847 27.9205 6.42232 27.82 8.07267C27.7196 9.72296 27.0539 11.2862 25.9375 12.4954C25.9375 12.4954 25.9375 12.4954 25.9374 12.4954L14.5384 24.8357L14.5383 24.8358M26.4876 3.45046L14.5383 24.8358M14.5383 24.8358C14.4902 24.8879 14.4322 24.9292 14.368 24.9574M14.5383 24.8358L14.368 24.9574M14.368 24.9574C14.3039 24.9855 14.2349 25 14.1652 25M14.368 24.9574L14.1652 25M14.1652 25C14.0955 25 14.0265 24.9855 13.9623 24.9574M14.1652 25L13.9623 24.9574M13.9623 24.9574C13.8984 24.9293 13.8405 24.8881 13.7924 24.8362L13.9623 24.9574ZM13.0117 4.87044H13.0124L12.4526 4.0812C10.0468 0.688786 5.04138 0.693289 2.64105 4.08897L2.64103 4.08899C1.83668 5.22705 1.44668 6.60949 1.53619 8.00305C1.62569 9.39662 2.1893 10.717 3.13278 11.7413L3.50053 11.4025L3.13278 11.7413L13.7995 23.3206L14.1667 23.7193L14.5345 23.3211L25.1911 11.7846L25.1911 11.7846C26.1452 10.7514 26.7133 9.41689 26.799 8.00923C26.8848 6.60162 26.4831 5.20724 25.6618 4.06443C23.2299 0.679297 18.2136 0.714129 15.8262 4.13093C15.8262 4.13095 15.8262 4.13096 15.8261 4.13098L14.583 5.90965C14.5356 5.97746 14.473 6.03244 14.4008 6.07033C14.3287 6.10821 14.2488 6.12802 14.1679 6.12832C14.087 6.12862 14.007 6.10941 13.9346 6.07207C13.8622 6.03474 13.7993 5.98029 13.7514 5.91291C13.7514 5.91287 13.7513 5.91282 13.7513 5.91277L13.0117 4.87044Z" fill="white" stroke="white"/>
</svg>
