<svg width="215" height="38" viewBox="0 0 215 38" fill="none" xmlns="http://www.w3.org/2000/svg">
    <path d="M51.92 28H49.68V12.04C49.68 10.92 50.0067 9.98667 50.66 9.24C51.3507 8.49333 52.2373 8.12 53.32 8.12C54.4027 8.12 55.2893 8.49333 55.98 9.24C56.6333 9.98667 56.96 10.92 56.96 12.04V24.36C56.96 25.48 57.4267 26.04 58.36 26.04C59.2933 26.04 59.76 25.48 59.76 24.36V12.04C59.76 10.92 60.0867 9.98667 60.74 9.24C61.4307 8.49333 62.3173 8.12 63.4 8.12C64.4827 8.12 65.3693 8.49333 66.06 9.24C66.7133 9.98667 67.04 10.92 67.04 12.04V28H64.8V12.04C64.8 10.92 64.3333 10.36 63.4 10.36C62.4667 10.36 62 10.92 62 12.04V24.36C62 25.48 61.6733 26.4133 61.02 27.16C60.3293 27.9067 59.4427 28.28 58.36 28.28C57.2773 28.28 56.3907 27.9067 55.7 27.16C55.0467 26.4133 54.72 25.48 54.72 24.36V12.04C54.72 10.92 54.2533 10.36 53.32 10.36C52.3867 10.36 51.92 10.92 51.92 12.04V28ZM82.1666 8.4H84.4066V23.24C84.4066 24.6213 83.9119 25.8067 82.9226 26.796C81.9332 27.7853 80.7479 28.28 79.3666 28.28C77.9852 28.28 76.7999 27.7853 75.8106 26.796C74.8212 25.8067 74.3266 24.6213 74.3266 23.24H76.5666C76.5666 24.0053 76.8372 24.668 77.3786 25.228C77.9386 25.7693 78.6012 26.04 79.3666 26.04C80.1319 26.04 80.7946 25.7693 81.3546 25.228C81.8959 24.668 82.1666 24.0053 82.1666 23.24V19.6H79.3666C77.9666 19.6 76.7812 19.1333 75.8106 18.2C74.8212 17.248 74.3266 16.0813 74.3266 14.7V8.4H76.5666V14.7C76.5666 15.4653 76.8372 16.128 77.3786 16.688C77.9386 17.2293 78.6012 17.5 79.3666 17.5H82.1666V8.4ZM91.9589 8.4H96.9989C98.3989 8.4 99.5842 8.86667 100.555 9.8C101.544 10.752 102.039 11.9187 102.039 13.3V14.28C102.039 15.8667 101.404 17.1733 100.135 18.2C101.404 19.2267 102.039 20.5333 102.039 22.12V23.1C102.039 24.4813 101.544 25.648 100.555 26.6C99.5842 27.5333 98.3989 28 96.9989 28H91.9589V8.4ZM94.1989 17.08H96.9989C97.7829 17.08 98.4456 16.8 98.9869 16.24C99.5282 15.6987 99.7989 15.0453 99.7989 14.28V13.3C99.7989 12.5347 99.5282 11.872 98.9869 11.312C98.4269 10.7707 97.7642 10.5 96.9989 10.5H94.1989V17.08ZM94.1989 19.32V25.9H96.9989C97.7642 25.9 98.4269 25.6293 98.9869 25.088C99.5282 24.528 99.7989 23.8653 99.7989 23.1V22.12C99.7989 21.3547 99.5282 20.692 98.9869 20.132C98.4269 19.5907 97.7642 19.32 96.9989 19.32H94.1989ZM111.852 28H109.612V12.04C109.612 10.92 109.939 9.98667 110.592 9.24C111.283 8.49333 112.169 8.12 113.252 8.12C114.335 8.12 115.221 8.49333 115.912 9.24C116.565 9.98667 116.892 10.92 116.892 12.04V24.36C116.892 25.48 117.359 26.04 118.292 26.04C119.225 26.04 119.692 25.48 119.692 24.36V12.04C119.692 10.92 120.019 9.98667 120.672 9.24C121.363 8.49333 122.249 8.12 123.332 8.12C124.415 8.12 125.301 8.49333 125.992 9.24C126.645 9.98667 126.972 10.92 126.972 12.04V28H124.732V12.04C124.732 10.92 124.265 10.36 123.332 10.36C122.399 10.36 121.932 10.92 121.932 12.04V24.36C121.932 25.48 121.605 26.4133 120.952 27.16C120.261 27.9067 119.375 28.28 118.292 28.28C117.209 28.28 116.323 27.9067 115.632 27.16C114.979 26.4133 114.652 25.48 114.652 24.36V12.04C114.652 10.92 114.185 10.36 113.252 10.36C112.319 10.36 111.852 10.92 111.852 12.04V28ZM142.379 19.04H136.779V28H134.539V13.16C134.539 11.7787 135.033 10.5933 136.023 9.604C137.012 8.61467 138.197 8.12 139.579 8.12C140.96 8.12 142.145 8.61467 143.135 9.604C144.124 10.5933 144.619 11.7787 144.619 13.16V28H142.379V19.04ZM136.779 16.94H142.379V13.16C142.379 12.3947 142.108 11.732 141.567 11.172C141.007 10.6307 140.344 10.36 139.579 10.36C138.813 10.36 138.151 10.6307 137.591 11.172C137.049 11.732 136.779 12.3947 136.779 13.16V16.94ZM152.192 8.4H157.232C158.632 8.4 159.817 8.86667 160.788 9.8C161.777 10.752 162.272 11.9187 162.272 13.3V14.28C162.272 15.7173 161.777 16.9213 160.788 17.892C159.817 18.844 158.632 19.32 157.232 19.32H154.432V28H152.192V8.4ZM154.432 17.08H157.232C158.016 17.08 158.678 16.8 159.22 16.24C159.761 15.6987 160.032 15.0453 160.032 14.28V13.3C160.032 12.5347 159.761 11.872 159.22 11.312C158.66 10.7707 157.997 10.5 157.232 10.5H154.432V17.08ZM173.036 19.04H170.964V28H168.724V8.4H170.964V16.94H173.764C174.529 16.94 175.192 16.6693 175.752 16.128C176.293 15.568 176.564 14.9053 176.564 14.14V8.4H178.804V14.14C178.804 15.204 178.486 16.1653 177.852 17.024C177.236 17.864 176.424 18.452 175.416 18.788L179.924 28H177.404L173.036 19.04ZM188.617 16.94H194.217V19.04H188.617V23.24C188.617 24.0053 188.888 24.668 189.429 25.228C189.989 25.7693 190.652 26.04 191.417 26.04C192.182 26.04 192.845 25.7693 193.405 25.228C193.946 24.668 194.217 24.0053 194.217 23.24H196.457C196.457 24.6213 195.962 25.8067 194.973 26.796C193.984 27.7853 192.798 28.28 191.417 28.28C190.036 28.28 188.85 27.7853 187.861 26.796C186.872 25.8067 186.377 24.6213 186.377 23.24V13.16C186.377 11.7787 186.872 10.5933 187.861 9.604C188.85 8.61467 190.036 8.12 191.417 8.12C192.798 8.12 193.984 8.61467 194.973 9.604C195.962 10.5933 196.457 11.7787 196.457 13.16H194.217C194.217 12.3947 193.946 11.732 193.405 11.172C192.845 10.6307 192.182 10.36 191.417 10.36C190.652 10.36 189.989 10.6307 189.429 11.172C188.888 11.732 188.617 12.3947 188.617 13.16V16.94ZM202.609 8.4H212.689V10.5H208.769V28H206.529V10.5H202.609V8.4Z" fill="white"/>
    <path d="M1 12.4167L15.1667 2L28.9167 12.4167" stroke="white" stroke-width="2" stroke-linecap="round"/>
    <path d="M21.4167 16.5833H2.25L6.41667 28.2499H12.6667V21.5833H17.6667V28.2499H23.5L27.6667 16.5833H36" stroke="white" stroke-width="2" stroke-linecap="round"/>
    <path d="M6.41659 28.25C5.72214 28.3889 4.33325 29 4.33325 30.3333C4.33325 32 5.58325 32.4167 5.99992 32.4167C6.33325 32.4167 18.361 32.4167 23.9166 32.4167" stroke="white" stroke-width="2" stroke-linecap="round"/>
    <circle cx="9.74992" cy="35.7499" r="1.66667" fill="white"/>
    <circle cx="18.9167" cy="35.7499" r="1.66667" fill="white"/>
</svg>
