<svg width="24" height="24" viewBox="0 0 24 24" fill="none" xmlns="http://www.w3.org/2000/svg">
<path d="M20.25 6.75H3.75C3.33579 6.75 3 7.08579 3 7.5V19.5C3 19.9142 3.33579 20.25 3.75 20.25H20.25C20.6642 20.25 21 19.9142 21 19.5V7.5C21 7.08579 20.6642 6.75 20.25 6.75Z" stroke="white" stroke-width="1.5" stroke-linecap="round" stroke-linejoin="round"/>
<path d="M8.25 8.75V5.75C8.25 4.75544 8.64509 3.80161 9.34835 3.09835C10.0516 2.39509 11.0054 2 12 2C12.9946 2 13.9484 2.39509 14.6517 3.09835C15.3549 3.80161 15.75 4.75544 15.75 5.75V8.75" stroke="white" stroke-width="1.5" stroke-linecap="round" stroke-linejoin="round"/>
</svg>
